<?xml version="1.0" encoding="utf-8"?>
<!-- Generator: Adobe Illustrator 27.5.0, SVG Export Plug-In . SVG Version: 6.00 Build 0)  -->
<svg version="1.1" xmlns="http://www.w3.org/2000/svg" xmlns:xlink="http://www.w3.org/1999/xlink" x="0px" y="0px"
	 viewBox="0 0 500 500" style="enable-background:new 0 0 500 500;" xml:space="preserve">
<g id="BACKGROUND">
	<rect style="fill:#0B2C56;" width="500" height="500"/>
</g>
<g id="OBJECTS">
	<g>
		<path style="fill:#2659B8;" d="M151.262,418.879c-24.715,0.058-50.148-0.998-72.76-10.974
			c-22.612-9.976-42.011-30.808-43.418-55.482c-1.253-21.971,11.649-42.482,27.469-57.78c15.82-15.298,34.813-26.981,50.868-42.032
			c16.055-15.051,29.539-35.022,29.31-57.028c-0.157-15.071-6.677-29.235-10.492-43.816c-8.49-32.448-2.216-69.923,21.381-93.759
			c23.597-23.836,65.49-29.418,91.277-7.971c18.017,14.985,25.987,39.633,44.401,54.126c25.952,20.426,64.171,14.81,93.655,29.69
			c19.113,9.646,33.538,28.122,38.26,49.004c3.061,13.54,2.201,27.626,3.525,41.444c1.485,15.503,5.761,30.734,12.561,44.745
			c8.719,17.965,21.628,34.176,26.419,53.561c2.706,10.948,2.657,22.502,0.417,33.555c-2.626,12.961-8.374,25.464-17.547,34.989
			c-10.897,11.316-25.872,17.796-40.926,22.287c-49.162,14.667-90.772,4.824-138.988-5.768c-15.834-3.479-28.759-0.245-44.115,3.559
			C199.065,417.049,175.411,418.822,151.262,418.879z"/>
		<path style="fill:#2659B8;" d="M19.112,283.921c4.116,5.894,12.288,8.762,19.04,6.294c4.241-1.55,7.585-4.859,10.507-8.301
			c3.533-4.162,6.793-9.016,6.964-14.472c0.184-5.859-3.533-11.533-8.784-14.14C28.899,244.397,7.196,266.858,19.112,283.921z"/>
		<path style="fill:#2659B8;" d="M367.412,102.99c7.202,5.147,15.991,7.518,23.784,11.718c7.609,4.101,14.29,9.958,22.367,13.037
			c8.077,3.078,18.61,2.463,23.657-4.555c2.17-3.018,3.02-6.813,3.156-10.528c0.359-9.787-3.999-19.406-10.71-26.54
			c-6.711-7.134-15.608-11.942-24.92-14.975c-13.621-4.436-30.514-4.792-42.23,4.883C352.683,84.15,358.192,96.4,367.412,102.99z"/>
		<path style="fill:#2659B8;" d="M450.417,252.542c2.384-0.198,4.481-1.701,6.074-3.485c8.206-9.187,1.775-34.268-13.295-26.84
			C432.262,227.607,437.964,253.575,450.417,252.542z"/>
		<path style="fill:#2659B8;" d="M132.379,59.649c-3.207,6.064-6.396,12.13-9.76,18.108c-3.364,5.978-7.602,11.724-13.523,15.187
			c-5.921,3.464-13.816,4.202-19.512,0.38c-7.736-5.191-8.693-16.272-6.888-25.411c2.593-13.128,9.497-25.602,20.14-33.712
			c10.643-8.111,25.251-11.847,37.918-7.525C157.479,32.381,139.838,45.545,132.379,59.649z"/>
	</g>
	<g>
		<g>
			<path style="fill:#72C48D;" d="M369.209,293.053c0,0,23.349,35.519,30.474,65.148c5.893,24.506-1.908,55.813-30.474,53.993"/>
			<g>
				<path style="fill:#001C39;" d="M84.406,217.918c0,0,1.829-10.693,2.533-13.084c0.703-2.392-0.141-13.788-0.704-15.054
					c-0.563-1.266-4.073-1.688-4.358,1.688c-0.285,3.377-3.239,7.879-4.787,8.16s-4.643-6.753-3.658-9.989
					c0.985-3.236,6.613-0.563,9.708-2.392c3.095-1.829,0.851-4.216-1.685-4.778c-2.536-0.563-9.422-2.254-11.392-0.565
					c-1.97,1.688-4.929,3.939-4.929,3.939s-1.41-12.665-1.269-14.775c0.141-2.11-4.221-3.939-5.346-0.422
					c-1.126,3.517-1.266,15.476-1.266,15.476s-3.939-7.035-4.924-8.582c-0.985-1.548-4.08,0-3.658,2.392
					c0.422,2.392,3.236,10.833,3.236,10.833s-3.377-4.783-4.221-5.206s-3.799,0.703-2.814,3.236
					c0.985,2.533,14.069,30.108,22.089,40.379"/>
				<path style="fill:#49A180;" d="M93.699,228.406c0,0-3.423-7.78-6.528-10.543c-3.105-2.764-18.662,4.474-21.749,8.358
					c-3.088,3.884,3.316,14.879,3.316,14.879"/>
				<path style="fill:#72C48D;" d="M146.928,334.95c-2.01,6.04-5.27,12.69-10.33,19.82c-26.93-12.05-48.33-51.07-60.24-80.14
					c-7.07-17.24-10.8-30.98-10.39-33.55c1.1-6.91,23.83-22.03,30.72-13.2c6.88,8.82,48.67,71.75,48.67,71.75
					S154.128,313.39,146.928,334.95z"/>
				<path style="fill:#49A180;" d="M146.928,334.95c-2.01,6.04-5.27,12.69-10.33,19.82c-26.93-12.05-48.33-51.07-60.24-80.14
					c10.83,15.43,23.58,29.65,38.47,41.26c8.56,6.67,17.81,12.45,27.65,17.02C143.958,333.6,145.448,334.26,146.928,334.95z"/>
				<g>
					<path style="fill:#FFC95C;" d="M91.091,180.381c1.737,3.735,0.111,8.187-3.625,9.924c-3.735,1.737-8.187,0.111-9.924-3.625
						c-1.737-3.735-0.11-8.187,3.625-9.924C84.902,175.02,89.354,176.646,91.091,180.381z M87.979,181.828
						c-0.939-2.02-3.346-2.899-5.365-1.96s-2.899,3.346-1.96,5.366c0.939,2.02,3.346,2.899,5.366,1.96
						C88.039,186.254,88.918,183.847,87.979,181.828z"/>
					<path style="fill:#FFC95C;" d="M110.378,169.522l-21.566,10.026c-0.859,0.4-1.232,1.42-0.833,2.279
						c0.4,0.859,1.42,1.232,2.279,0.833l18.455-8.58l1.528,3.286c0.4,0.859,1.42,1.232,2.279,0.832
						c0.859-0.399,1.232-1.42,0.833-2.279L110.378,169.522z"/>
					<path style="fill:#FFC95C;" d="M103.087,172.912c-0.859,0.399-1.232,1.42-0.832,2.279l1.858,3.996
						c0.399,0.859,1.42,1.232,2.279,0.833s1.232-1.42,0.833-2.279l-1.858-3.996C104.966,172.885,103.946,172.512,103.087,172.912z"
						/>
				</g>
			</g>
			<g>
				<g>
					<path style="fill:#49A180;" d="M227.09,206.002l43.199,62.408l47.643-54.285C317.933,214.124,268.541,179.653,227.09,206.002z"
						/>
					<path style="fill:#001C39;" d="M227.09,206.002c0,0-13.637-53.792-4.14-90.215c9.497-36.422,42.095-45.138,65.035-40.03
						c22.94,5.109,58.972,25.329,47.137,80.749c-11.835,55.421-15.608,67.696-22.603,68.982c-6.995,1.286-13.326-4.851-13.326-4.851
						s-15.384,5.342-30.796,2.435c-15.411-2.907-22.67-7.215-22.67-7.215S230.513,222.65,227.09,206.002z"/>
					<g>
						<path style="fill:#F7C5B5;" d="M293.15,229.548c-19.438,12.81-37.869-3.386-37.869-3.386l0.755-10.575l0.959-13.307
							l34.56,1.765l0.973,15.508L293.15,229.548z"/>
						<path style="fill:#F7948A;" d="M292.284,215.663c-3.497,1.615-9.211,2.994-13.044,3.194
							c-8.817,0.467-15.201-2.064-22.987-6.274l0.742-10.303l34.56,1.765L292.284,215.663z"/>
						<path style="fill:#FA7E47;" d="M255.286,226.158c0,0-44.577,5.694-66.237,48.342c74.127,34.122,155.129,18.383,155.129,18.383
							s11.617-48.059-51.029-63.339C271.527,233.901,255.286,226.158,255.286,226.158z"/>
						<path style="fill:#FF9D46;" d="M296.585,237.087c-5.779,8.557-12.48,17.622-22.439,20.351
							c-6.718,1.841-14.236,0.322-19.694-4.007c-4.43-3.513-8.942-10.175-3.28-14.812c5.167-4.232,15.088,0.098,21.019,0.657
							C280.375,240.046,288.734,239.705,296.585,237.087z"/>
					</g>
					<path style="fill:#F7C5B5;" d="M273.166,211.833c-23.166-1.068-48.435-24.487-49.848-57.955
						c-1.413-33.468,22.992-63.919,59.038-60.696c36.046,3.223,49.453,38.549,46.973,64.892
						C326.849,184.417,299.152,213.031,273.166,211.833z"/>
					<path style="fill:#F7948A;" d="M275.744,152.344c0,0-4.726,13.721-5.128,18.214c-0.186,2.084,11.85,3.854,12.017,1.518
						c0.229-3.197-1.917-19.287-1.917-19.287L275.744,152.344z"/>
					<path style="fill:#F788B7;" d="M256.268,164.403c-0.493,5.512-5.361,9.581-10.873,9.088c-5.512-0.493-9.581-5.361-9.088-10.873
						c0.493-5.512,5.361-9.581,10.873-9.088C252.692,154.023,256.761,158.891,256.268,164.403z"/>
					<path style="fill:#F788B7;" d="M316.637,169.801c-0.493,5.512-5.361,9.581-10.873,9.088c-5.512-0.493-9.581-5.361-9.088-10.873
						c0.493-5.512,5.361-9.581,10.873-9.088S317.129,164.288,316.637,169.801z"/>
					<path style="fill:#001C39;" d="M278.427,106.627c0,0-23.444,33.729-53.991,32.196c-3.473-13.636,13.182-49.245,40.62-53.65
						c32.117-5.155,70.531,9.642,64.46,63.045c-16.043-8.262-21.305-34.342-21.305-34.342s-17.301,19.858-41.332,15.034
						C278.452,121.918,278.427,106.627,278.427,106.627z"/>
					<path style="fill:#F7C5B5;" d="M228.355,142.913c0,0-7.617-9.921-12.069-5.919c-4.452,4.002-4.084,33.074,14.661,25.881"/>
					<path style="fill:#F7C5B5;" d="M325.266,151.331c0,0,5.446-7.158,10.632-4.4c5.186,2.757-1.246,27.671-11.767,25.644"/>
					<path style="fill:#0B2C56;" d="M220.197,129.111c0,0,76.963,20.947,114.125,9.808c4.233,23.237,2.276,26.723,2.276,26.723
						s-22.629,5.493-35.135,4.394c-15.274-1.343-14.596-11.069-23.674-11.984c-9.332-0.941-9.993,7.645-26.645,7.112
						c-14.56-0.466-37.072-15.838-37.072-15.838L220.197,129.111z"/>
					<path style="fill:#72C48D;" d="M322.724,241.398c-7.649-15.235,13.719-37.231,22.236-66.654
						c14.521-50.168-4.18-103.638-54.291-110.978c-50.378-7.379-81.133,25.765-89.033,81.789
						c-5.583,39.597,20.463,64.715,15.725,88.003c-9.831,4.569-37.575,19.545-43.302,45.298
						c30.253,18.006,175.311,30.974,185.122,19.072C361.995,266.458,341.088,250.816,322.724,241.398z M279.436,103.629
						c41.432,1.334,60.116,28.968,47.613,72.527c-9.84,34.281-45.252,69.536-53.7,77.6c-14.293-15.123-51.856-57.586-53.038-90.431
						C218.773,120.579,240.524,102.376,279.436,103.629z"/>
					<circle style="fill:#49A180;" cx="240.117" cy="246.026" r="4.926"/>
					<circle style="fill:#49A180;" cx="302.89" cy="249.562" r="4.926"/>
					<path style="fill:#96D3AA;" d="M249.236,74.689c11.945-6.183,26.099-8.228,39.168-5.051c1.691,0.411,3.424,0.94,4.718,2.104
						c1.294,1.164,2.02,3.129,1.27,4.7c-1.175,2.341-9.069-0.824-13.609-0.643c-9.644,0.385-18.913,4.101-27.137,9.156
						c-6.586,4.048-12.578,8.952-18.469,13.935c-3.08,2.605-9.944,10.334-11.104,2.665C222.498,91.146,241.68,78.599,249.236,74.689
						z"/>
					<path style="fill:#96D3AA;" d="M321.06,98.042c5.412,7.604,9.358,16.248,11.559,25.318c0.358,1.476,0.695,3.016,1.621,4.219
						c0.927,1.203,2.646,1.953,4.004,1.273c0.728-0.364,1.229-1.066,1.59-1.796c0.9-1.818,1.093-3.895,1.194-5.921
						c0.326-6.57-0.215-13.342-2.979-19.31c-2.441-5.269-6.746-9.655-12.225-11.716C319.142,87.595,317.435,92.949,321.06,98.042z"
						/>
				</g>
				<path style="fill:#FFC95C;" d="M262.3,152.049c0,0-13.895-9.247-15.449-7.52c-1.554,1.727-1.311,10.165,7.045,11.359
					C260.217,156.792,262.3,152.049,262.3,152.049z"/>
				<path style="fill:#FFC95C;" d="M292.918,154.786c0,0,15.315-6.635,16.538-4.66c1.223,1.975-0.513,10.236-8.949,9.929
					C294.126,159.824,292.918,154.786,292.918,154.786z"/>
				<path style="fill:#001C39;" d="M292.918,145.745c0.778,2.351,16.469-2.573,16.324-5.864
					C309.097,136.59,291.296,140.845,292.918,145.745z"/>
				<path style="fill:#001C39;" d="M249.473,128.427c-1.198,2.167,13.068,10.348,15.386,8.007
					C267.178,134.094,251.97,123.91,249.473,128.427z"/>
				<path style="fill:#FFFFFF;" d="M264.371,172.922c0,0,8.502,5.786,17.473,6.357C276.733,186.512,263.331,181.891,264.371,172.922
					z"/>
			</g>
		</g>
		<g>
			<g>
				<ellipse style="fill:#001C39;" cx="250" cy="444.472" rx="194.379" ry="17.626"/>
				<g>
					<path style="fill:#001C39;" d="M373.385,426.436h-246.77V265.332c0-3.845,3.117-6.962,6.962-6.962h232.845
						c3.845,0,6.962,3.117,6.962,6.962V426.436z"/>
					<path style="fill:#285596;" d="M398.989,426.845H101.011v5.303c0,6.806,5.518,12.324,12.324,12.324h273.33
						c6.806,0,12.324-5.517,12.324-12.324V426.845z"/>
					<path style="fill:#0694DD;" d="M358.194,410.374H141.806c-2.863,0-5.184-2.321-5.184-5.184V272.489
						c0-2.863,2.321-5.184,5.184-5.184h216.389c2.863,0,5.184,2.321,5.184,5.184V405.19
						C363.379,408.053,361.057,410.374,358.194,410.374z"/>
					<path style="fill:#FFFFFF;" d="M251.599,262.459c0-0.883-0.716-1.599-1.599-1.599s-1.599,0.716-1.599,1.599
						s0.716,1.599,1.599,1.599S251.599,263.342,251.599,262.459z"/>
				</g>
				<path style="fill:#0B2C56;" d="M266.79,439.255h-33.58c-1.545,0-2.798-1.253-2.798-2.798l0,0c0-1.545,1.253-2.798,2.798-2.798
					h33.58c1.545,0,2.798,1.253,2.798,2.798l0,0C269.588,438.002,268.335,439.255,266.79,439.255z"/>
			</g>
			<g>
				<g>
					<path style="fill:#2659B8;" d="M182.672,379.916h-29.124c-1.387,0-2.511-1.124-2.511-2.511l0,0
						c0-1.387,1.124-2.511,2.511-2.511h29.124c1.387,0,2.511,1.124,2.511,2.511l0,0
						C185.183,378.792,184.059,379.916,182.672,379.916z"/>
					<path style="fill:#2659B8;" d="M306.679,379.916h-59.124c-1.387,0-2.511-1.124-2.511-2.511l0,0
						c0-1.387,1.124-2.511,2.511-2.511h59.124c1.387,0,2.511,1.124,2.511,2.511l0,0
						C309.189,378.792,308.065,379.916,306.679,379.916z"/>
					<path style="fill:#2659B8;" d="M238.873,379.916h-29.124c-1.387,0-2.511-1.124-2.511-2.511l0,0
						c0-1.387,1.124-2.511,2.511-2.511h29.124c1.387,0,2.511,1.124,2.511,2.511l0,0C241.384,378.792,240.26,379.916,238.873,379.916
						z"/>
					<path style="fill:#2659B8;" d="M200.023,379.916h-9.124c-1.387,0-2.511-1.124-2.511-2.511l0,0c0-1.387,1.124-2.511,2.511-2.511
						h9.124c1.387,0,2.511,1.124,2.511,2.511l0,0C202.534,378.792,201.41,379.916,200.023,379.916z"/>
					<path style="fill:#2659B8;" d="M325.925,379.916h-9.124c-1.387,0-2.511-1.124-2.511-2.511l0,0c0-1.387,1.124-2.511,2.511-2.511
						h9.124c1.387,0,2.511,1.124,2.511,2.511l0,0C328.436,378.792,327.312,379.916,325.925,379.916z"/>
				</g>
				<g>
					<path style="fill:#2659B8;" d="M337.836,390.774h-29.124c-1.387,0-2.511-1.124-2.511-2.511l0,0
						c0-1.387,1.124-2.511,2.511-2.511h29.124c1.387,0,2.511,1.124,2.511,2.511l0,0C340.347,389.65,339.223,390.774,337.836,390.774
						z"/>
					<path style="fill:#2659B8;" d="M281.132,390.774h-39.124c-1.387,0-2.511-1.124-2.511-2.511l0,0
						c0-1.387,1.124-2.511,2.511-2.511h39.124c1.387,0,2.511,1.124,2.511,2.511l0,0C283.643,389.65,282.519,390.774,281.132,390.774
						z"/>
					<path style="fill:#2659B8;" d="M233.327,390.774h-49.124c-1.387,0-2.511-1.124-2.511-2.511l0,0
						c0-1.387,1.124-2.511,2.511-2.511h49.124c1.387,0,2.511,1.124,2.511,2.511l0,0C235.837,389.65,234.713,390.774,233.327,390.774
						z"/>
					<path style="fill:#2659B8;" d="M174.477,390.774h-9.124c-1.387,0-2.511-1.124-2.511-2.511l0,0c0-1.387,1.124-2.511,2.511-2.511
						h9.124c1.387,0,2.511,1.124,2.511,2.511l0,0C176.988,389.65,175.863,390.774,174.477,390.774z"/>
					<path style="fill:#2659B8;" d="M300.379,390.774h-9.124c-1.387,0-2.511-1.124-2.511-2.511l0,0c0-1.387,1.124-2.511,2.511-2.511
						h9.124c1.387,0,2.511,1.124,2.511,2.511l0,0C302.89,389.65,301.766,390.774,300.379,390.774z"/>
				</g>
				<g>
					<path style="fill:#2659B8;" d="M278.814,369.058h-9.124c-1.387,0-2.511-1.124-2.511-2.511l0,0c0-1.387,1.124-2.511,2.511-2.511
						h9.124c1.387,0,2.511,1.124,2.511,2.511l0,0C281.325,367.934,280.201,369.058,278.814,369.058z"/>
					<path style="fill:#2659B8;" d="M218.873,369.058h-9.124c-1.387,0-2.511-1.124-2.511-2.511l0,0c0-1.387,1.124-2.511,2.511-2.511
						h9.124c1.387,0,2.511,1.124,2.511,2.511l0,0C221.384,367.934,220.26,369.058,218.873,369.058z"/>
					<path style="fill:#2659B8;" d="M199.745,369.058h-29.124c-1.387,0-2.511-1.124-2.511-2.511l0,0
						c0-1.387,1.124-2.511,2.511-2.511h29.124c1.387,0,2.511,1.124,2.511,2.511l0,0
						C202.256,367.934,201.132,369.058,199.745,369.058z"/>
					<path style="fill:#2659B8;" d="M346.452,369.058h-58.124c-1.387,0-2.511-1.124-2.511-2.511l0,0
						c0-1.387,1.124-2.511,2.511-2.511h58.124c1.387,0,2.511,1.124,2.511,2.511l0,0
						C348.963,367.934,347.839,369.058,346.452,369.058z"/>
					<path style="fill:#2659B8;" d="M259.606,369.058h-29.124c-1.387,0-2.511-1.124-2.511-2.511l0,0
						c0-1.387,1.124-2.511,2.511-2.511h29.124c1.387,0,2.511,1.124,2.511,2.511l0,0
						C262.117,367.934,260.992,369.058,259.606,369.058z"/>
				</g>
				<g>
					<path style="fill:#2659B8;" d="M217.67,396.61h26.124c1.387,0,2.511,1.124,2.511,2.511l0,0c0,1.387-1.124,2.511-2.511,2.511
						H217.67c-1.387,0-2.511-1.124-2.511-2.511l0,0C215.159,397.735,216.283,396.61,217.67,396.61z"/>
					<path style="fill:#2659B8;" d="M294.611,396.61h9.124c1.387,0,2.511,1.124,2.511,2.511l0,0c0,1.387-1.124,2.511-2.511,2.511
						h-9.124c-1.387,0-2.511-1.124-2.511-2.511l0,0C292.1,397.735,293.224,396.61,294.611,396.61z"/>
					<path style="fill:#2659B8;" d="M313.739,396.61h29.124c1.387,0,2.511,1.124,2.511,2.511l0,0c0,1.387-1.124,2.511-2.511,2.511
						h-29.124c-1.387,0-2.511-1.124-2.511-2.511l0,0C311.228,397.735,312.352,396.61,313.739,396.61z"/>
					<path style="fill:#2659B8;" d="M157.032,396.61h51.124c1.387,0,2.511,1.124,2.511,2.511l0,0c0,1.387-1.124,2.511-2.511,2.511
						h-51.124c-1.387,0-2.511-1.124-2.511-2.511l0,0C154.521,397.735,155.645,396.61,157.032,396.61z"/>
					<path style="fill:#2659B8;" d="M253.878,396.61h29.124c1.387,0,2.511,1.124,2.511,2.511l0,0c0,1.387-1.124,2.511-2.511,2.511
						h-29.124c-1.387,0-2.511-1.124-2.511-2.511l0,0C251.367,397.735,252.491,396.61,253.878,396.61z"/>
				</g>
				<g>
					<path style="fill:#2659B8;" d="M182.672,336.484h-29.124c-1.387,0-2.511-1.124-2.511-2.511l0,0
						c0-1.387,1.124-2.511,2.511-2.511h29.124c1.387,0,2.511,1.124,2.511,2.511l0,0C185.183,335.36,184.059,336.484,182.672,336.484
						z"/>
					<path style="fill:#2659B8;" d="M306.679,336.484h-59.124c-1.387,0-2.511-1.124-2.511-2.511l0,0
						c0-1.387,1.124-2.511,2.511-2.511h59.124c1.387,0,2.511,1.124,2.511,2.511l0,0C309.189,335.36,308.065,336.484,306.679,336.484
						z"/>
					<path style="fill:#2659B8;" d="M238.873,336.484h-29.124c-1.387,0-2.511-1.124-2.511-2.511l0,0
						c0-1.387,1.124-2.511,2.511-2.511h29.124c1.387,0,2.511,1.124,2.511,2.511l0,0C241.384,335.36,240.26,336.484,238.873,336.484z
						"/>
					<path style="fill:#2659B8;" d="M200.023,336.484h-9.124c-1.387,0-2.511-1.124-2.511-2.511l0,0c0-1.387,1.124-2.511,2.511-2.511
						h9.124c1.387,0,2.511,1.124,2.511,2.511l0,0C202.534,335.36,201.41,336.484,200.023,336.484z"/>
					<path style="fill:#2659B8;" d="M325.925,336.484h-9.124c-1.387,0-2.511-1.124-2.511-2.511l0,0c0-1.387,1.124-2.511,2.511-2.511
						h9.124c1.387,0,2.511,1.124,2.511,2.511l0,0C328.436,335.36,327.312,336.484,325.925,336.484z"/>
				</g>
				<g>
					<path style="fill:#2659B8;" d="M337.836,347.342h-29.124c-1.387,0-2.511-1.124-2.511-2.511l0,0
						c0-1.387,1.124-2.511,2.511-2.511h29.124c1.387,0,2.511,1.124,2.511,2.511l0,0
						C340.347,346.218,339.223,347.342,337.836,347.342z"/>
					<path style="fill:#2659B8;" d="M281.132,347.342h-39.124c-1.387,0-2.511-1.124-2.511-2.511l0,0
						c0-1.387,1.124-2.511,2.511-2.511h39.124c1.387,0,2.511,1.124,2.511,2.511l0,0
						C283.643,346.218,282.519,347.342,281.132,347.342z"/>
					<path style="fill:#2659B8;" d="M233.327,347.342h-49.124c-1.387,0-2.511-1.124-2.511-2.511l0,0
						c0-1.387,1.124-2.511,2.511-2.511h49.124c1.387,0,2.511,1.124,2.511,2.511l0,0
						C235.837,346.218,234.713,347.342,233.327,347.342z"/>
					<path style="fill:#2659B8;" d="M174.477,347.342h-9.124c-1.387,0-2.511-1.124-2.511-2.511l0,0c0-1.387,1.124-2.511,2.511-2.511
						h9.124c1.387,0,2.511,1.124,2.511,2.511l0,0C176.988,346.218,175.863,347.342,174.477,347.342z"/>
					<path style="fill:#2659B8;" d="M300.379,347.342h-9.124c-1.387,0-2.511-1.124-2.511-2.511l0,0c0-1.387,1.124-2.511,2.511-2.511
						h9.124c1.387,0,2.511,1.124,2.511,2.511l0,0C302.89,346.218,301.766,347.342,300.379,347.342z"/>
				</g>
				<g>
					<path style="fill:#2659B8;" d="M278.814,325.627h-9.124c-1.387,0-2.511-1.124-2.511-2.511l0,0c0-1.387,1.124-2.511,2.511-2.511
						h9.124c1.387,0,2.511,1.124,2.511,2.511l0,0C281.325,324.502,280.201,325.627,278.814,325.627z"/>
					<path style="fill:#2659B8;" d="M218.873,325.627h-9.124c-1.387,0-2.511-1.124-2.511-2.511l0,0c0-1.387,1.124-2.511,2.511-2.511
						h9.124c1.387,0,2.511,1.124,2.511,2.511l0,0C221.384,324.502,220.26,325.627,218.873,325.627z"/>
					<path style="fill:#2659B8;" d="M199.745,325.627h-29.124c-1.387,0-2.511-1.124-2.511-2.511l0,0
						c0-1.387,1.124-2.511,2.511-2.511h29.124c1.387,0,2.511,1.124,2.511,2.511l0,0
						C202.256,324.502,201.132,325.627,199.745,325.627z"/>
					<path style="fill:#2659B8;" d="M346.452,325.627h-58.124c-1.387,0-2.511-1.124-2.511-2.511l0,0
						c0-1.387,1.124-2.511,2.511-2.511h58.124c1.387,0,2.511,1.124,2.511,2.511l0,0
						C348.963,324.502,347.839,325.627,346.452,325.627z"/>
					<path style="fill:#2659B8;" d="M259.606,325.627h-29.124c-1.387,0-2.511-1.124-2.511-2.511l0,0
						c0-1.387,1.124-2.511,2.511-2.511h29.124c1.387,0,2.511,1.124,2.511,2.511l0,0
						C262.117,324.502,260.992,325.627,259.606,325.627z"/>
				</g>
				<g>
					<path style="fill:#2659B8;" d="M217.67,353.179h26.124c1.387,0,2.511,1.124,2.511,2.511l0,0c0,1.387-1.124,2.511-2.511,2.511
						H217.67c-1.387,0-2.511-1.124-2.511-2.511l0,0C215.159,354.303,216.283,353.179,217.67,353.179z"/>
					<path style="fill:#2659B8;" d="M294.611,353.179h9.124c1.387,0,2.511,1.124,2.511,2.511l0,0c0,1.387-1.124,2.511-2.511,2.511
						h-9.124c-1.387,0-2.511-1.124-2.511-2.511l0,0C292.1,354.303,293.224,353.179,294.611,353.179z"/>
					<path style="fill:#2659B8;" d="M313.739,353.179h29.124c1.387,0,2.511,1.124,2.511,2.511l0,0c0,1.387-1.124,2.511-2.511,2.511
						h-29.124c-1.387,0-2.511-1.124-2.511-2.511l0,0C311.228,354.303,312.352,353.179,313.739,353.179z"/>
					<path style="fill:#2659B8;" d="M157.032,353.179h51.124c1.387,0,2.511,1.124,2.511,2.511l0,0c0,1.387-1.124,2.511-2.511,2.511
						h-51.124c-1.387,0-2.511-1.124-2.511-2.511l0,0C154.521,354.303,155.645,353.179,157.032,353.179z"/>
					<path style="fill:#2659B8;" d="M253.878,353.179h29.124c1.387,0,2.511,1.124,2.511,2.511l0,0c0,1.387-1.124,2.511-2.511,2.511
						h-29.124c-1.387,0-2.511-1.124-2.511-2.511l0,0C251.367,354.303,252.491,353.179,253.878,353.179z"/>
				</g>
				<g>
					<path style="fill:#2659B8;" d="M182.672,293.053h-29.124c-1.387,0-2.511-1.124-2.511-2.511l0,0
						c0-1.387,1.124-2.511,2.511-2.511h29.124c1.387,0,2.511,1.124,2.511,2.511l0,0
						C185.183,291.929,184.059,293.053,182.672,293.053z"/>
					<path style="fill:#2659B8;" d="M306.679,293.053h-59.124c-1.387,0-2.511-1.124-2.511-2.511l0,0
						c0-1.387,1.124-2.511,2.511-2.511h59.124c1.387,0,2.511,1.124,2.511,2.511l0,0
						C309.189,291.929,308.065,293.053,306.679,293.053z"/>
					<path style="fill:#2659B8;" d="M238.873,293.053h-29.124c-1.387,0-2.511-1.124-2.511-2.511l0,0
						c0-1.387,1.124-2.511,2.511-2.511h29.124c1.387,0,2.511,1.124,2.511,2.511l0,0C241.384,291.929,240.26,293.053,238.873,293.053
						z"/>
					<path style="fill:#2659B8;" d="M200.023,293.053h-9.124c-1.387,0-2.511-1.124-2.511-2.511l0,0c0-1.387,1.124-2.511,2.511-2.511
						h9.124c1.387,0,2.511,1.124,2.511,2.511l0,0C202.534,291.929,201.41,293.053,200.023,293.053z"/>
					<path style="fill:#2659B8;" d="M325.925,293.053h-9.124c-1.387,0-2.511-1.124-2.511-2.511l0,0c0-1.387,1.124-2.511,2.511-2.511
						h9.124c1.387,0,2.511,1.124,2.511,2.511l0,0C328.436,291.929,327.312,293.053,325.925,293.053z"/>
				</g>
				<g>
					<path style="fill:#2659B8;" d="M337.836,303.911h-29.124c-1.387,0-2.511-1.124-2.511-2.511l0,0
						c0-1.387,1.124-2.511,2.511-2.511h29.124c1.387,0,2.511,1.124,2.511,2.511l0,0
						C340.347,302.787,339.223,303.911,337.836,303.911z"/>
					<path style="fill:#2659B8;" d="M281.132,303.911h-39.124c-1.387,0-2.511-1.124-2.511-2.511l0,0
						c0-1.387,1.124-2.511,2.511-2.511h39.124c1.387,0,2.511,1.124,2.511,2.511l0,0
						C283.643,302.787,282.519,303.911,281.132,303.911z"/>
					<path style="fill:#2659B8;" d="M233.327,303.911h-49.124c-1.387,0-2.511-1.124-2.511-2.511l0,0
						c0-1.387,1.124-2.511,2.511-2.511h49.124c1.387,0,2.511,1.124,2.511,2.511l0,0
						C235.837,302.787,234.713,303.911,233.327,303.911z"/>
					<path style="fill:#2659B8;" d="M174.477,303.911h-9.124c-1.387,0-2.511-1.124-2.511-2.511l0,0c0-1.387,1.124-2.511,2.511-2.511
						h9.124c1.387,0,2.511,1.124,2.511,2.511l0,0C176.988,302.787,175.863,303.911,174.477,303.911z"/>
					<path style="fill:#2659B8;" d="M300.379,303.911h-9.124c-1.387,0-2.511-1.124-2.511-2.511l0,0c0-1.387,1.124-2.511,2.511-2.511
						h9.124c1.387,0,2.511,1.124,2.511,2.511l0,0C302.89,302.787,301.766,303.911,300.379,303.911z"/>
				</g>
				<g>
					<path style="fill:#2659B8;" d="M278.814,282.195h-9.124c-1.387,0-2.511-1.124-2.511-2.511l0,0c0-1.387,1.124-2.511,2.511-2.511
						h9.124c1.387,0,2.511,1.124,2.511,2.511l0,0C281.325,281.071,280.201,282.195,278.814,282.195z"/>
					<path style="fill:#2659B8;" d="M218.873,282.195h-9.124c-1.387,0-2.511-1.124-2.511-2.511l0,0c0-1.387,1.124-2.511,2.511-2.511
						h9.124c1.387,0,2.511,1.124,2.511,2.511l0,0C221.384,281.071,220.26,282.195,218.873,282.195z"/>
					<path style="fill:#2659B8;" d="M199.745,282.195h-29.124c-1.387,0-2.511-1.124-2.511-2.511l0,0
						c0-1.387,1.124-2.511,2.511-2.511h29.124c1.387,0,2.511,1.124,2.511,2.511l0,0
						C202.256,281.071,201.132,282.195,199.745,282.195z"/>
					<path style="fill:#2659B8;" d="M346.452,282.195h-58.124c-1.387,0-2.511-1.124-2.511-2.511l0,0
						c0-1.387,1.124-2.511,2.511-2.511h58.124c1.387,0,2.511,1.124,2.511,2.511l0,0
						C348.963,281.071,347.839,282.195,346.452,282.195z"/>
					<path style="fill:#2659B8;" d="M259.606,282.195h-29.124c-1.387,0-2.511-1.124-2.511-2.511l0,0
						c0-1.387,1.124-2.511,2.511-2.511h29.124c1.387,0,2.511,1.124,2.511,2.511l0,0
						C262.117,281.071,260.992,282.195,259.606,282.195z"/>
				</g>
				<g>
					<path style="fill:#2659B8;" d="M217.67,309.747h26.124c1.387,0,2.511,1.124,2.511,2.511l0,0c0,1.387-1.124,2.511-2.511,2.511
						H217.67c-1.387,0-2.511-1.124-2.511-2.511l0,0C215.159,310.871,216.283,309.747,217.67,309.747z"/>
					<path style="fill:#2659B8;" d="M294.611,309.747h9.124c1.387,0,2.511,1.124,2.511,2.511l0,0c0,1.387-1.124,2.511-2.511,2.511
						h-9.124c-1.387,0-2.511-1.124-2.511-2.511l0,0C292.1,310.871,293.224,309.747,294.611,309.747z"/>
					<path style="fill:#2659B8;" d="M313.739,309.747h29.124c1.387,0,2.511,1.124,2.511,2.511l0,0c0,1.387-1.124,2.511-2.511,2.511
						h-29.124c-1.387,0-2.511-1.124-2.511-2.511l0,0C311.228,310.871,312.352,309.747,313.739,309.747z"/>
					<path style="fill:#2659B8;" d="M157.032,309.747h51.124c1.387,0,2.511,1.124,2.511,2.511l0,0c0,1.387-1.124,2.511-2.511,2.511
						h-51.124c-1.387,0-2.511-1.124-2.511-2.511l0,0C154.521,310.871,155.645,309.747,157.032,309.747z"/>
					<path style="fill:#2659B8;" d="M253.878,309.747h29.124c1.387,0,2.511,1.124,2.511,2.511l0,0c0,1.387-1.124,2.511-2.511,2.511
						h-29.124c-1.387,0-2.511-1.124-2.511-2.511l0,0C251.367,310.871,252.491,309.747,253.878,309.747z"/>
				</g>
			</g>
			<circle style="fill:#2659B8;" cx="250" cy="340.806" r="59.827"/>
			<g>
				<path style="fill:#FF9D46;" d="M236.13,338.45c-2.124,0-3.846-1.722-3.846-3.846v-21.705c0-8.482,6.901-15.383,15.382-15.383
					h4.667c8.482,0,15.382,6.901,15.382,15.383c0,2.124-1.722,3.846-3.846,3.846c-2.124,0-3.846-1.722-3.846-3.846
					c0-4.241-3.45-7.691-7.691-7.691h-4.667c-4.241,0-7.691,3.45-7.691,7.691v21.705C239.976,336.728,238.254,338.45,236.13,338.45z
					"/>
				<g>
					<path style="fill:#FFC95C;" d="M253.667,327.833v3.436h-7.334v-3.436H229.27v44.071c0,3.026,2.453,5.48,5.48,5.48h30.5
						c3.026,0,5.479-2.453,5.479-5.48v-44.071H253.667z"/>
					<path style="fill:#001C39;" d="M254.232,354.331c0-2.337-1.895-4.232-4.232-4.232c-2.337,0-4.232,1.895-4.232,4.232
						c0,1.615,0.905,3.018,2.235,3.731v5.258c0,1.103,0.894,1.996,1.997,1.996c1.102,0,1.996-0.894,1.996-1.996v-5.258
						C253.327,357.348,254.232,355.945,254.232,354.331z"/>
					<g>
						<path style="fill:#FF9D46;" d="M237.069,334.604c0,1.037-0.841,1.878-1.878,1.878c-1.037,0-1.878-0.841-1.878-1.878
							s0.841-1.878,1.878-1.878C236.228,332.727,237.069,333.567,237.069,334.604z"/>
						<path style="fill:#FF9D46;" d="M266.687,334.604c0,1.037-0.841,1.878-1.878,1.878c-1.037,0-1.878-0.841-1.878-1.878
							s0.841-1.878,1.878-1.878C265.846,332.727,266.687,333.567,266.687,334.604z"/>
					</g>
					<g>
						<path style="fill:#FF9D46;" d="M237.069,370.362c0,1.037-0.841,1.878-1.878,1.878c-1.037,0-1.878-0.841-1.878-1.878
							c0-1.037,0.841-1.878,1.878-1.878C236.228,368.484,237.069,369.325,237.069,370.362z"/>
						<path style="fill:#FF9D46;" d="M266.687,370.362c0,1.037-0.841,1.878-1.878,1.878c-1.037,0-1.878-0.841-1.878-1.878
							c0-1.037,0.841-1.878,1.878-1.878C265.846,368.484,266.687,369.325,266.687,370.362z"/>
					</g>
				</g>
			</g>
		</g>
		<path style="fill:#72C48D;" d="M364.26,374.895l12.724-10.858c0,0,18.429,26.671,8.404,40.934
			c-10.026,14.263-28.864,4.852-30.816-10.955C352.619,378.209,364.26,374.895,364.26,374.895z"/>
		<path style="fill:#49A180;" d="M370.266,373.791c-12.141-4.7-23.917,8.532-23.555,17.449c0.362,8.916,23.194,18.24,29.775,13.11
			C383.066,399.22,386.079,379.913,370.266,373.791z"/>
		<path style="fill:#001C39;" d="M365.302,377.341c-6.652-3.154-22.835,1.621-28.128,1.605c-4.521-0.43-13.068,0.291-14.807,1.402
			c-2.528,1.615-7.226,6.626-6.379,9.248c0.847,2.622,8.318-1.117,8.318-1.117l1.811,0.069c-3.004,5.289-4.25,11.684-1.923,12.858
			c3.322,1.675,9.262-7.402,9.262-7.402s-3.405,11.509,1.173,12.769c3.545,0.976,7.488-9.53,7.488-9.53s1.489,8.671,5.943,9.762
			c4.455,1.091,3.89-10.442,3.89-10.442s16.608,7.486,19.477,1.95C378.469,384.93,365.302,377.341,365.302,377.341z"/>
	</g>
</g>
</svg>
