<?xml version="1.0" encoding="UTF-8"?>
<svg version="1.1" xmlns="http://www.w3.org/2000/svg" width="225" height="225">
<path d="M0 0 C74.25 0 148.5 0 225 0 C225 74.25 225 148.5 225 225 C150.75 225 76.5 225 0 225 C0 150.75 0 76.5 0 0 Z " fill="#F57E01" transform="translate(0,0)"/>
<path d="M0 0 C3.82526627 2.69365392 6.7854814 5.06514296 7.71484375 9.828125 C8.19347745 15.09309567 7.50844509 18.33840856 4.71484375 22.828125 C1.77305627 26.22956677 -0.24667786 27.6356371 -4.80859375 28.06640625 C-12.46266239 28.26562174 -12.46266239 28.26562174 -16.22265625 26.265625 C-19.70496877 22.15016475 -21.96608456 18.77800755 -22.84765625 13.390625 C-22.10106719 8.6622276 -20.37653123 5.45926387 -17.28515625 1.828125 C-12.13972545 -1.91400649 -5.76726384 -2.9575712 0 0 Z " fill="#FAF5EC" transform="translate(151.28515625,99.171875)"/>
<path d="M0 0 C6.75 -0.125 6.75 -0.125 9 1 C9 10.24 9 19.48 9 29 C4.18479772 28.03695954 3.08697881 27.64187723 -0.3125 24.5625 C-1.00988281 23.94503906 -1.70726562 23.32757813 -2.42578125 22.69140625 C-4 21 -4 21 -4 19 C-4.99 19 -5.98 19 -7 19 C-7 22.3 -7 25.6 -7 29 C-9.64 29 -12.28 29 -15 29 C-15 19.76 -15 10.52 -15 1 C-9.46515749 2.1069685 -8.67695137 3.04727728 -5 7 C-3.35135455 8.35555293 -1.68996005 9.69631653 0 11 C0 7.37 0 3.74 0 0 Z " fill="#FBFCFA" transform="translate(177,98)"/>
<path d="M0 0 C1.2375 0.7425 1.2375 0.7425 2.5 1.5 C0.625 6.375 0.625 6.375 -0.5 7.5 C-2.18183948 7.73287008 -3.8712416 7.91264166 -5.5625 8.0625 C-6.48160156 8.14628906 -7.40070313 8.23007813 -8.34765625 8.31640625 C-9.05792969 8.37699219 -9.76820312 8.43757813 -10.5 8.5 C-11.54214691 13.11507774 -11.54214691 13.11507774 -10.5 17.5 C-7.97855264 17.8163106 -5.48448848 17.8795062 -2.9453125 17.9609375 C-0.5 18.5 -0.5 18.5 1.3828125 20.3515625 C1.75148438 21.06054688 2.12015625 21.76953125 2.5 22.5 C1.5 25.5 1.5 25.5 -0.2578125 26.6640625 C-4.29191058 28.16806422 -8.26623567 28.0350729 -12.5 27.5 C-16.29853672 25.7043281 -18.02011124 24.20383685 -20.375 20.75 C-22.19419489 15.49454811 -22.2515375 11.4539975 -20.25 6.25 C-15.29791712 -1.53184452 -8.5314541 -3.65633747 0 0 Z " fill="#FBF9F3" transform="translate(112.5,99.5)"/>
<path d="M0 0 C0.639375 0.495 1.27875 0.99 1.9375 1.5 C0.0625 6.375 0.0625 6.375 -1.0625 7.5 C-2.91141946 7.73363881 -4.76738031 7.91303635 -6.625 8.0625 C-7.63691406 8.14628906 -8.64882812 8.23007813 -9.69140625 8.31640625 C-10.47386719 8.37699219 -11.25632812 8.43757813 -12.0625 8.5 C-12.35812367 13.82170494 -12.35812367 13.82170494 -10.0625 18.5 C-7.96406674 18.96930149 -7.96406674 18.96930149 -5.625 19 C-1.45310517 19.16495136 -1.45310517 19.16495136 0.72265625 21.03125 C1.12355469 21.5159375 1.52445313 22.000625 1.9375 22.5 C0.9375 25.5 0.9375 25.5 -0.8203125 26.6640625 C-4.85441058 28.16806422 -8.82873567 28.0350729 -13.0625 27.5 C-16.82617773 25.72080689 -18.56876666 24.20768445 -20.9375 20.8125 C-22.86472376 15.13789671 -22.89459125 10.47621672 -20.5625 4.9375 C-20.0675 4.133125 -19.5725 3.32875 -19.0625 2.5 C-18.4025 2.5 -17.7425 2.5 -17.0625 2.5 C-17.0625 1.84 -17.0625 1.18 -17.0625 0.5 C-11.55690447 -2.34159769 -5.56014037 -2.72333406 0 0 Z " fill="#FAFAF4" transform="translate(89.0625,99.5)"/>
<path d="M0 0 C3.53935939 4.55913034 6.31154973 9.50688964 9.1875 14.5 C9.74630859 15.45003906 10.30511719 16.40007812 10.88085938 17.37890625 C11.40873047 18.29542969 11.93660156 19.21195313 12.48046875 20.15625 C12.96410889 20.98962891 13.44774902 21.82300781 13.94604492 22.68164062 C15 25 15 25 15 29 C11.7 29 8.4 29 5 29 C4.0234375 26.68880208 3.046875 24.37760417 2.0703125 22.06640625 C1.1755063 19.84253285 1.1755063 19.84253285 -1 19 C-1.28875 19.9075 -1.5775 20.815 -1.875 21.75 C-3 25 -3 25 -5 29 C-7.97 29 -10.94 29 -14 29 C-13.46455734 24.72891087 -12.5085238 21.60581434 -10.375 17.875 C-9.57835937 16.46927734 -9.57835937 16.46927734 -8.765625 15.03515625 C-7.89164063 13.53275391 -7.89164063 13.53275391 -7 12 C-6.03320312 10.32744141 -6.03320312 10.32744141 -5.046875 8.62109375 C-3.37424114 5.74157976 -1.69190137 2.86822333 0 0 Z " fill="#FAF8F1" transform="translate(53,98)"/>
<path d="M0 0 C2.31 0.66 4.62 1.32 7 2 C6.6390625 2.6290625 6.278125 3.258125 5.90625 3.90625 C2.81249934 9.61250122 1.04175259 13.505212 2 20 C3.69719554 24.29037248 6.00619593 27.57519039 10 30 C7.23735711 30.59732819 4.83967231 31 2 31 C2 30.01 2 29.02 2 28 C1.34 27.67 0.68 27.34 0 27 C-0.27972656 26.3296875 -0.55945313 25.659375 -0.84765625 24.96875 C-1.22792969 24.3190625 -1.60820313 23.669375 -2 23 C-4.09336509 22.44783659 -4.09336509 22.44783659 -6.4375 22.5 C-10.76537855 22.1794164 -10.76537855 22.1794164 -13.125 20.375 C-14.36221275 17.01685111 -13.72888416 14.44563423 -13 11 C-12.24074219 10.91363281 -11.48148437 10.82726562 -10.69921875 10.73828125 C-4.47644164 10.09266893 -4.47644164 10.09266893 0.1875 6.375 C0.455625 5.59125 0.72375 4.8075 1 4 C0.01 3.67 -0.98 3.34 -2 3 C-1.34 2.34 -0.68 1.68 0 1 C0 0.67 0 0.34 0 0 Z " fill="#F58205" transform="translate(90,97)"/>
<path d="M0 0 C2.97 0 5.94 0 9 0 C9.02886338 4.47915328 9.04675187 8.95828291 9.0625 13.4375 C9.07087891 14.71689453 9.07925781 15.99628906 9.08789062 17.31445312 C9.09111328 18.52939453 9.09433594 19.74433594 9.09765625 20.99609375 C9.10289307 22.12200928 9.10812988 23.2479248 9.11352539 24.40795898 C9 27 9 27 8 28 C5.36 28 2.72 28 0 28 C0 18.76 0 9.52 0 0 Z " fill="#FCFDFA" transform="translate(118,99)"/>
<path d="M0 0 C4.10415189 -0.02898097 8.20827753 -0.0467922 12.3125 -0.0625 C13.47974609 -0.07087891 14.64699219 -0.07925781 15.84960938 -0.08789062 C17.52700195 -0.09272461 17.52700195 -0.09272461 19.23828125 -0.09765625 C20.26993408 -0.10289307 21.30158691 -0.10812988 22.36450195 -0.11352539 C25 0 25 0 28 1 C28 1.66 28 2.32 28 3 C28.66 2.67 29.32 2.34 30 2 C29.505 1.01 29.505 1.01 29 0 C31.475 0.495 31.475 0.495 34 1 C33.67 1.66 33.34 2.32 33 3 C32.84824451 4.59262066 32.75099675 6.19064856 32.68359375 7.7890625 C32.62075195 9.20058594 32.62075195 9.20058594 32.55664062 10.640625 C32.51732422 11.62546875 32.47800781 12.6103125 32.4375 13.625 C32.37272461 15.11386719 32.37272461 15.11386719 32.30664062 16.6328125 C32.20038931 19.08839838 32.09835036 21.54408703 32 24 C31.67 24 31.34 24 31 24 C30.82984375 22.86820313 30.6596875 21.73640625 30.484375 20.5703125 C30.24051404 19.08838821 29.9956712 17.60662526 29.75 16.125 C29.64042969 15.37863281 29.53085938 14.63226563 29.41796875 13.86328125 C29.03879514 11.41706855 29.03879514 11.41706855 28 8 C26.10306372 6.51070306 26.10306372 6.51070306 24 6 C23.443125 5.46375 22.88625 4.9275 22.3125 4.375 C18.66124368 2.20398273 15.13833096 2.48900609 11 3 C6.33556082 4.49614087 3.95011712 6.56201627 1.67578125 10.9609375 C0.66740612 14.00354916 0.75174795 16.81080618 0.95703125 19.984375 C1 22 1 22 0 25 C0.66 25 1.32 25 2 25 C2 25.66 2 26.32 2 27 C1.34 27.33 0.68 27.66 0 28 C-0.33 28.99 -0.66 29.98 -1 31 C-1.33 31 -1.66 31 -2 31 C-2.33 21.43 -2.66 11.86 -3 2 C-2.01 2 -1.02 2 0 2 C0 1.34 0 0.68 0 0 Z " fill="#F3710B" transform="translate(129,96)"/>
<path d="M0 0 C5.625 -0.25 5.625 -0.25 9 2 C9 3.32 9 4.64 9 6 C9.66 6 10.32 6 11 6 C11 5.34 11 4.68 11 4 C11.99 4.33 12.98 4.66 14 5 C13.67 13.91 13.34 22.82 13 32 C6.4 32 -0.2 32 -7 32 C-7 28.7 -7 25.4 -7 22 C-3.19386014 23.90306993 -0.83806135 25.81871115 2.21875 28.66015625 C4.18877567 30.32298264 4.18877567 30.32298264 8 31 C8 21.76 8 12.52 8 3 C5.36 2.67 2.72 2.34 0 2 C0 1.34 0 0.68 0 0 Z " fill="#F26607" transform="translate(178,96)"/>
<path d="M0 0 C0.66 0 1.32 0 2 0 C2.33 0.33 2.66 0.66 3 1 C3.99 1 4.98 1 6 1 C8.1875 2.5625 8.1875 2.5625 10 5 C10.67709968 10.2233404 9.76328977 13.55899858 7 18 C4.63254428 20.73737067 3.45870295 21.84709902 0 23 C-1.85227252 23.09357692 -3.7078718 23.12993909 -5.5625 23.125 C-6.53316406 23.12757812 -7.50382813 23.13015625 -8.50390625 23.1328125 C-11 23 -11 23 -13 22 C-12.34 20.35 -11.68 18.7 -11 17 C-9.948125 17.185625 -8.89625 17.37125 -7.8125 17.5625 C-4.42880118 17.95079331 -2.23574112 17.88247485 1 17 C2.08225226 13.03411509 1.85418866 10.67077028 0.5 6.8125 C-0.0520076 5.22547816 -0.56347999 3.62259082 -1 2 C-0.67 1.34 -0.34 0.68 0 0 Z " fill="#F7FCFB" transform="translate(149,104)"/>
<path d="M0 0 C0.33 0 0.66 0 1 0 C1 7.92 1 15.84 1 24 C-6.00709178 22.83215137 -6.58956665 21.93548494 -11 17 C-10.1875 14.0625 -10.1875 14.0625 -9 11 C-8.01 10.67 -7.02 10.34 -6 10 C-5.67 7.03 -5.34 4.06 -5 1 C-3.35 1.33 -1.7 1.66 0 2 C0 1.34 0 0.68 0 0 Z " fill="#FCFBF8" transform="translate(184,102)"/>
<path d="M0 0 C0.33 0 0.66 0 1 0 C1 8.58 1 17.16 1 26 C0.01 24.68 -0.98 23.36 -2 22 C-2.99 21.34 -3.98 20.68 -5 20 C-5 19.34 -5 18.68 -5 18 C-5.69867188 18.03480469 -6.39734375 18.06960937 -7.1171875 18.10546875 C-8.02726562 18.13253906 -8.93734375 18.15960938 -9.875 18.1875 C-10.77992187 18.22230469 -11.68484375 18.25710937 -12.6171875 18.29296875 C-13.79667969 18.14794922 -13.79667969 18.14794922 -15 18 C-17 15 -17 15 -16.6875 11.375 C-16 8 -16 8 -15 7 C-13.48071962 6.92820036 -11.95832518 6.91607993 -10.4375 6.9375 C-9.61121094 6.94652344 -8.78492187 6.95554687 -7.93359375 6.96484375 C-7.29550781 6.97644531 -6.65742187 6.98804687 -6 7 C-6 7.33 -6 7.66 -6 8 C-8.31 8.33 -10.62 8.66 -13 9 C-10.69 9 -8.38 9 -6 9 C-6.33 9.66 -6.66 10.32 -7 11 C-6.01 11.33 -5.02 11.66 -4 12 C-3.855625 12.763125 -3.71125 13.52625 -3.5625 14.3125 C-3.0367406 17.08172908 -3.0367406 17.08172908 -2 20 C-1.34 20 -0.68 20 0 20 C0 13.4 0 6.8 0 0 Z " fill="#F18A25" transform="translate(117,100)"/>
<path d="M0 0 C6.32597793 -0.35807422 6.32597793 -0.35807422 9 1.0625 C10.63378851 4.22796524 9.85267564 6.65020286 9 10 C6 12 6 12 2.9375 11.875 C0 11 0 11 -1.4375 9.25 C-2.30427375 5.78290501 -1.57514566 3.15029131 0 0 Z " fill="#F1771A" transform="translate(140,107)"/>
<path d="M0 0 C0.33 0 0.66 0 1 0 C1 9.24 1 18.48 1 28 C3.64 28 6.28 28 9 28 C9 28.33 9 28.66 9 29 C3.39 29 -2.22 29 -8 29 C-8 27.68 -8 26.36 -8 25 C-7 24 -6 23 -5 22 C-3.8595593 19.70884436 -2.94429462 17.38321975 -2 15 C-1.67 15 -1.34 15 -1 15 C-0.67 10.05 -0.34 5.1 0 0 Z " fill="#EF7F2A" transform="translate(161,99)"/>
<path d="M0 0 C0.33 0 0.66 0 1 0 C1.38809686 6.468281 0.25194974 10.39618311 -4 15.3125 C-7.34527643 18.13507699 -10.34267246 18.15940528 -14.5625 18.1875 C-16.01849609 18.20876953 -16.01849609 18.20876953 -17.50390625 18.23046875 C-20 18 -20 18 -22 16 C-21.01 16.061875 -20.02 16.12375 -19 16.1875 C-14.63906305 16.16973651 -10.77614343 15.21970024 -7 13 C-4.91140121 9.69305192 -4.77961946 6.8566594 -5 3 C-3.68 3 -2.36 3 -1 3 C-0.67 2.01 -0.34 1.02 0 0 Z " fill="#FAF1E6" transform="translate(158,109)"/>
<path d="M0 0 C0.639375 0.495 1.27875 0.99 1.9375 1.5 C0.0625 6.375 0.0625 6.375 -1.0625 7.5 C-2.74433948 7.73287008 -4.4337416 7.91264166 -6.125 8.0625 C-7.04410156 8.14628906 -7.96320313 8.23007813 -8.91015625 8.31640625 C-9.62042969 8.37699219 -10.33070312 8.43757813 -11.0625 8.5 C-10.7325 7.84 -10.4025 7.18 -10.0625 6.5 C-7.74093403 6.09270772 -5.4056213 5.75561323 -3.0625 5.5 C-3.0625 4.84 -3.0625 4.18 -3.0625 3.5 C-3.7225 3.5 -4.3825 3.5 -5.0625 3.5 C-5.0625 2.84 -5.0625 2.18 -5.0625 1.5 C-6.3825 1.5 -7.7025 1.5 -9.0625 1.5 C-9.0625 2.16 -9.0625 2.82 -9.0625 3.5 C-9.701875 3.314375 -10.34125 3.12875 -11 2.9375 C-12.0209375 2.7209375 -12.0209375 2.7209375 -13.0625 2.5 C-13.3925 2.83 -13.7225 3.16 -14.0625 3.5 C-15.72264616 3.86442233 -17.38956064 4.19972883 -19.0625 4.5 C-19.0625 3.84 -19.0625 3.18 -19.0625 2.5 C-18.4025 2.5 -17.7425 2.5 -17.0625 2.5 C-17.0625 1.84 -17.0625 1.18 -17.0625 0.5 C-11.55690447 -2.34159769 -5.56014037 -2.72333406 0 0 Z " fill="#F8EFE1" transform="translate(89.0625,99.5)"/>
<path d="M0 0 C3.3125 -0.25 3.3125 -0.25 7 0 C8.8125 2 8.8125 2 10 4 C10.66 4 11.32 4 12 4 C12 6.97 12 9.94 12 13 C7.14285714 10.57142857 7.14285714 10.57142857 5 8 C5 7.34 5 6.68 5 6 C4.38125 5.71125 3.7625 5.4225 3.125 5.125 C1 4 1 4 -1 2 C-0.67 1.34 -0.34 0.68 0 0 Z " fill="#F1670C" transform="translate(165,96)"/>
<path d="M0 0 C0.99 0.33 1.98 0.66 3 1 C3 1.66 3 2.32 3 3 C3.66 3 4.32 3 5 3 C5.33 2.01 5.66 1.02 6 0 C6.66 0.33 7.32 0.66 8 1 C7.93039063 1.85271484 7.93039063 1.85271484 7.859375 2.72265625 C7.57574622 8.7902863 8.53606658 12.00786066 12 17 C12.66 17.66 13.32 18.32 14 19 C12.125 20.0625 12.125 20.0625 10 21 C7.33625086 19.66812543 7.07067692 17.98171539 5.99609375 15.3203125 C3.90032582 10.43840603 1.40309873 5.7362043 -1 1 C-0.67 0.67 -0.34 0.34 0 0 Z " fill="#F08D14" transform="translate(60,107)"/>
<path d="M0 0 C0.66 0.33 1.32 0.66 2 1 C2.39465208 3.58317727 2.50806152 6.14188281 2.65625 8.75 C2.7696875 9.4925 2.883125 10.235 3 11 C3.66 11.33 4.32 11.66 5 12 C0.46625958 13.03039555 -0.64467851 13.17766075 -5 11 C-5 7.7 -5 4.4 -5 1 C-4.67 1.66 -4.34 2.32 -4 3 C-3.34 3 -2.68 3 -2 3 C-1.67 2.34 -1.34 1.68 -1 1 C-0.67 0.67 -0.34 0.34 0 0 Z " fill="#F8FCFA" transform="translate(97,109)"/>
<path d="M0 0 C6.75 -0.125 6.75 -0.125 9 1 C9 10.24 9 19.48 9 29 C7.68 28.67 6.36 28.34 5 28 C5.99 28 6.98 28 8 28 C7.67 20.74 7.34 13.48 7 6 C5.35 5.67 3.7 5.34 2 5 C1.67 6.98 1.34 8.96 1 11 C0.67 11 0.34 11 0 11 C0 7.37 0 3.74 0 0 Z " fill="#FAE4D0" transform="translate(177,98)"/>
<path d="M0 0 C0.33 0 0.66 0 1 0 C1.08636719 0.66386719 1.17273438 1.32773438 1.26171875 2.01171875 C2.19879915 7.90071025 3.15992186 11.12793749 8 15 C8.66 15.66 9.32 16.32 10 17 C7.23735711 17.59732819 4.83967231 18 2 18 C2 17.01 2 16.02 2 15 C1.34 14.67 0.68 14.34 0 14 C-0.27585937 13.33484375 -0.55171875 12.6696875 -0.8359375 11.984375 C-1.82051218 9.78073016 -1.82051218 9.78073016 -4.1640625 9.390625 C-5.38222656 9.32101563 -5.38222656 9.32101563 -6.625 9.25 C-7.85089844 9.16492188 -7.85089844 9.16492188 -9.1015625 9.078125 C-9.72804688 9.05234375 -10.35453125 9.0265625 -11 9 C-11 8.67 -11 8.34 -11 8 C-7.7 7.67 -4.4 7.34 -1 7 C-0.67 4.69 -0.34 2.38 0 0 Z " fill="#F18617" transform="translate(90,110)"/>
<path d="M0 0 C0.99 0.33 1.98 0.66 3 1 C4.6875 4.5625 4.6875 4.5625 6 8 C5.01 8.33 4.02 8.66 3 9 C2.67 9.66 2.34 10.32 2 11 C0.35 11 -1.3 11 -3 11 C-4 8 -4 8 -3.22265625 5.95703125 C-2.83980469 5.24933594 -2.45695312 4.54164062 -2.0625 3.8125 C-1.68222656 3.09707031 -1.30195312 2.38164063 -0.91015625 1.64453125 C-0.60980469 1.10183594 -0.30945312 0.55914062 0 0 Z " fill="#F4900F" transform="translate(52,117)"/>
<path d="M0 0 C0.99 0 1.98 0 3 0 C3.33 0.66 3.66 1.32 4 2 C4.33 1.34 4.66 0.68 5 0 C5.66 0.33 6.32 0.66 7 1 C6.53198701 5.99213851 4.08284263 10.12963993 1 14 C0.34 14 -0.32 14 -1 14 C-1.08333357 9.1666528 -0.95261487 4.76307437 0 0 Z " fill="#F79005" transform="translate(41,104)"/>
<path d="M0 0 C2.97 0 5.94 0 9 0 C9 8.91 9 17.82 9 27 C8.67 27 8.34 27 8 27 C8 19.08 8 11.16 8 3 C7.34 3 6.68 3 6 3 C5.67 3.66 5.34 4.32 5 5 C3.35 4.67 1.7 4.34 0 4 C0 2.68 0 1.36 0 0 Z " fill="#FADCC2" transform="translate(118,99)"/>
<path d="M0 0 C1.65 0.33 3.3 0.66 5 1 C4.67 1.66 4.34 2.32 4 3 C3.84824451 4.59262066 3.75099675 6.19064856 3.68359375 7.7890625 C3.64169922 8.73007813 3.59980469 9.67109375 3.55664062 10.640625 C3.49766602 12.11789063 3.49766602 12.11789063 3.4375 13.625 C3.39431641 14.61757812 3.35113281 15.61015625 3.30664062 16.6328125 C3.20038931 19.08839838 3.09835036 21.54408703 3 24 C2.67 24 2.34 24 2 24 C1.49490792 21.75113762 0.99610821 19.50086131 0.5 17.25 C0.2215625 15.99703125 -0.056875 14.7440625 -0.34375 13.453125 C-1 10 -1 10 -1 6 C-0.34 6 0.32 6 1 6 C0.67 5.01 0.34 4.02 0 3 C0 2.01 0 1.02 0 0 Z " fill="#F46705" transform="translate(158,96)"/>
<path d="M0 0 C0 0.33 0 0.66 0 1 C-1.98 1.66 -3.96 2.32 -6 3 C-6 3.33 -6 3.66 -6 4 C-4.35 4.33 -2.7 4.66 -1 5 C-1.99 5.33 -2.98 5.66 -4 6 C-4 6.66 -4 7.32 -4 8 C-4.99 8 -5.98 8 -7 8 C-7 7.34 -7 6.68 -7 6 C-8.65 6 -10.3 6 -12 6 C-11.67 4.35 -11.34 2.7 -11 1 C-7.26562152 0.12132271 -3.83225427 -0.08912219 0 0 Z " fill="#F7FBF9" transform="translate(147,99)"/>
<path d="M0 0 C2.31 0.66 4.62 1.32 7 2 C5.35 5.3 3.7 8.6 2 12 C1.01 11.01 0.02 10.02 -1 9 C-0.34 7.35 0.32 5.7 1 4 C0.01 3.67 -0.98 3.34 -2 3 C-1.34 2.34 -0.68 1.68 0 1 C0 0.67 0 0.34 0 0 Z " fill="#F4851F" transform="translate(90,97)"/>
<path d="M0 0 C0.33 0 0.66 0 1 0 C1 2.97 1 5.94 1 9 C-1.64 9 -4.28 9 -7 9 C-7 7.02 -7 5.04 -7 3 C-6.67 3.99 -6.34 4.98 -6 6 C-5.34 6 -4.68 6 -4 6 C-4.33 5.01 -4.66 4.02 -5 3 C-4.01 3 -3.02 3 -2 3 C-1.67 3.33 -1.34 3.66 -1 4 C-0.67 2.68 -0.34 1.36 0 0 Z " fill="#FBF5EA" transform="translate(169,118)"/>
<path d="M0 0 C-0.66 0.66 -1.32 1.32 -2 2 C-2.99 2 -3.98 2 -5 2 C-5 3.32 -5 4.64 -5 6 C-6.32 6.33 -7.64 6.66 -9 7 C-9.433125 6.0409375 -9.433125 6.0409375 -9.875 5.0625 C-10.82823451 2.84793921 -10.82823451 2.84793921 -13 2 C-8.50343896 -0.24828052 -4.92127034 -0.16682272 0 0 Z " fill="#FAF2E5" transform="translate(109,98)"/>
<path d="M0 0 C3.875 1.75 3.875 1.75 5 4 C5.66 4 6.32 4 7 4 C7 6.31 7 8.62 7 11 C6.67 10.34 6.34 9.68 6 9 C5.01 9 4.02 9 3 9 C2.731875 8.21625 2.46375 7.4325 2.1875 6.625 C1.15185568 3.71885077 1.15185568 3.71885077 -2 2 C-1.34 1.34 -0.68 0.68 0 0 Z " fill="#F16704" transform="translate(170,96)"/>
<path d="M0 0 C2.33294775 -0.04241723 4.66702567 -0.04092937 7 0 C8 1 8 1 8.0625 3.5625 C8.041875 4.366875 8.02125 5.17125 8 6 C7.01 5.01 6.02 4.02 5 3 C4.34 4.32 3.68 5.64 3 7 C2.34 7 1.68 7 1 7 C0.67 4.69 0.34 2.38 0 0 Z " fill="#F28C11" transform="translate(48,96)"/>
<path d="M0 0 C0.66 0 1.32 0 2 0 C3.28430862 1.47695491 4.56580708 2.95806138 5.78125 4.4921875 C7.06784671 6.13813095 7.06784671 6.13813095 9 8 C6.69 8.33 4.38 8.66 2 9 C1.34 6.03 0.68 3.06 0 0 Z " fill="#F9F2E8" transform="translate(168,102)"/>
<path d="M0 0 C0.515625 0.268125 1.03125 0.53625 1.5625 0.8125 C4.66401415 2.32349407 7.82262806 3.65572726 11 5 C11 5.33 11 5.66 11 6 C7.37 6 3.74 6 0 6 C0 4.02 0 2.04 0 0 Z " fill="#EF6E11" transform="translate(175,122)"/>
<path d="M0 0 C2.97 0.33 5.94 0.66 9 1 C9 1.99 9 2.98 9 4 C6.03 4 3.06 4 0 4 C0 2.68 0 1.36 0 0 Z " fill="#FCF8F0" transform="translate(39,123)"/>
<path d="M0 0 C0.99 0 1.98 0 3 0 C3.66 1.65 4.32 3.3 5 5 C4.34 5 3.68 5 3 5 C3 5.66 3 6.32 3 7 C0.11562221 5.70700306 -1.87219421 4.34058637 -4 2 C-2.68 2 -1.36 2 0 2 C0 1.34 0 0.68 0 0 Z " fill="#F07822" transform="translate(154,97)"/>
<path d="M0 0 C0.33 1.32 0.66 2.64 1 4 C2.65 4 4.3 4 6 4 C5.67 5.32 5.34 6.64 5 8 C5 7.34 5 6.68 5 6 C4.01 6 3.02 6 2 6 C1.67 6.66 1.34 7.32 1 8 C1 7.01 1 6.02 1 5 C-1.475 6.485 -1.475 6.485 -4 8 C-2.87548273 5.0280615 -1.77706209 2.66559313 0 0 Z " fill="#FBF1E9" transform="translate(134,101)"/>
<path d="M0 0 C0.66 0.33 1.32 0.66 2 1 C1.835 2.093125 1.67 3.18625 1.5 4.3125 C0.93281816 7.87525873 0.93281816 7.87525873 1 11 C-0.65 10.67 -2.3 10.34 -4 10 C-2.8905928 6.51329166 -1.73662334 3.22515763 0 0 Z " fill="#F39A1F" transform="translate(52,117)"/>
<path d="M0 0 C0.66 0 1.32 0 2 0 C3.2890625 1.75 3.2890625 1.75 4.625 4 C5.07101563 4.7425 5.51703125 5.485 5.9765625 6.25 C6.31429687 6.8275 6.65203125 7.405 7 8 C5.02 8.33 3.04 8.66 1 9 C1.33 7.02 1.66 5.04 2 3 C1.34 3 0.68 3 0 3 C0 2.01 0 1.02 0 0 Z " fill="#F27F17" transform="translate(129,118)"/>
<path d="M0 0 C1.5 1.25 1.5 1.25 3 3 C3 4.32 3 5.64 3 7 C-0.3 7 -3.6 7 -7 7 C-6.67 6.34 -6.34 5.68 -6 5 C-5.34 5.33 -4.68 5.66 -4 6 C-4 5.34 -4 4.68 -4 4 C-3.34 4.33 -2.68 4.66 -2 5 C-0.55245745 3.55245745 -0.44266439 1.96037087 0 0 Z " fill="#FAECD4" transform="translate(65,120)"/>
<path d="M0 0 C0.44988281 0.60328125 0.89976563 1.2065625 1.36328125 1.828125 C3.19466427 4.25831345 5.09113714 6.63037713 7 9 C5.125 10.0625 5.125 10.0625 3 11 C2.34 10.67 1.68 10.34 1 10 C0.5859375 7.71484375 0.5859375 7.71484375 0.375 4.9375 C0.30023438 4.01839844 0.22546875 3.09929687 0.1484375 2.15234375 C0.09945312 1.44207031 0.05046875 0.73179688 0 0 Z " fill="#F29420" transform="translate(67,117)"/>
<path d="M0 0 C0.33 0 0.66 0 1 0 C1.33 3.3 1.66 6.6 2 10 C1.01 10.33 0.02 10.66 -1 11 C-1.33 10.67 -1.66 10.34 -2 10 C-3.51469448 9.76807135 -5.03754562 9.58784762 -6.5625 9.4375 C-7.38878906 9.35371094 -8.21507813 9.26992187 -9.06640625 9.18359375 C-9.70449219 9.12300781 -10.34257813 9.06242187 -11 9 C-11 8.67 -11 8.34 -11 8 C-7.7 7.67 -4.4 7.34 -1 7 C-0.67 4.69 -0.34 2.38 0 0 Z " fill="#F19E49" transform="translate(90,110)"/>
<path d="M0 0 C0 1.98 0 3.96 0 6 C-0.33 5.34 -0.66 4.68 -1 4 C-3.64 4 -6.28 4 -9 4 C-9 3.01 -9 2.02 -9 1 C-1.125 0 -1.125 0 0 0 Z " fill="#EF8816" transform="translate(89,106)"/>
<path d="M0 0 C0.99 0 1.98 0 3 0 C3 1.65 3 3.3 3 5 C0.36 5 -2.28 5 -5 5 C-4.360625 4.731875 -3.72125 4.46375 -3.0625 4.1875 C-0.66868314 3.11332248 -0.66868314 3.11332248 0 0 Z " fill="#F8F1E4" transform="translate(123,122)"/>
<path d="M0 0 C0.33 0 0.66 0 1 0 C0.6875 3.375 0.6875 3.375 0 7 C-3 9 -3 9 -5.1875 8.625 C-5.785625 8.41875 -6.38375 8.2125 -7 8 C-6.01 8 -5.02 8 -4 8 C-3.8453125 7.13375 -3.8453125 7.13375 -3.6875 6.25 C-2.897231 3.66366508 -1.75133174 2.04322037 0 0 Z " fill="#F08233" transform="translate(149,110)"/>
<path d="M0 0 C0.66 0.33 1.32 0.66 2 1 C1.43628586 4.26954202 0.50037734 5.82575883 -2 8 C-2.99 7.67 -3.98 7.34 -5 7 C-4.67 5.68 -4.34 4.36 -4 3 C-2.68 3 -1.36 3 0 3 C0 2.01 0 1.02 0 0 Z " fill="#EA7311" transform="translate(147,108)"/>
<path d="M0 0 C0.66 0.33 1.32 0.66 2 1 C2 2.32 2 3.64 2 5 C2.99 5 3.98 5 5 5 C5.33 6.32 5.66 7.64 6 9 C3.15616877 7.7251791 0.86245982 6.54862922 -1 4 C-0.6875 1.8125 -0.6875 1.8125 0 0 Z " fill="#F56F1C" transform="translate(171,100)"/>
<path d="M0 0 C1.65 0 3.3 0 5 0 C4.34 2.31 3.68 4.62 3 7 C2.67 6.01 2.34 5.02 2 4 C0.68 4.33 -0.64 4.66 -2 5 C-1.34 3.35 -0.68 1.7 0 0 Z " fill="#F59E20" transform="translate(36,120)"/>
<path d="M0 0 C0.66 0.33 1.32 0.66 2 1 C1.39301257 5.12751449 -0.03810791 8.3321148 -2 12 C-3.47118907 8.17490842 -2.45442741 5.71687005 -1 2 C-0.67 1.34 -0.34 0.68 0 0 Z " fill="#F39117" transform="translate(46,104)"/>
<path d="M0 0 C1.5625 1.75 1.5625 1.75 3 4 C2.6875 6.25 2.6875 6.25 2 8 C1.01 8 0.02 8 -1 8 C-0.67 5.36 -0.34 2.72 0 0 Z " fill="#FBF1E1" transform="translate(61,112)"/>
<path d="M0 0 C0.33 0 0.66 0 1 0 C1.33 2.31 1.66 4.62 2 7 C1.34 7 0.68 7 0 7 C-0.33 7.66 -0.66 8.32 -1 9 C-1.66 8.34 -2.32 7.68 -3 7 C-2.01 4.69 -1.02 2.38 0 0 Z " fill="#F17515" transform="translate(159,114)"/>
<path d="M0 0 C0 0.99 0 1.98 0 3 C-0.99 3 -1.98 3 -3 3 C-3 4.98 -3 6.96 -3 9 C-3.66 9 -4.32 9 -5 9 C-5.36666667 3.5 -5.36666667 3.5 -3.625 1.125 C-2 0 -2 0 0 0 Z " fill="#F7FDFD" transform="translate(135,106)"/>
<path d="M0 0 C2.475 0.99 2.475 0.99 5 2 C3.25 6.875 3.25 6.875 1 8 C1.04125 7.21625 1.0825 6.4325 1.125 5.625 C1.28728734 2.83883881 1.28728734 2.83883881 -1 1 C-0.67 0.67 -0.34 0.34 0 0 Z " fill="#F7EEE2" transform="translate(110,99)"/>
<path d="M0 0 C4.455 0.99 4.455 0.99 9 2 C9 2.99 9 3.98 9 5 C4.89198233 3.81323934 3.10551666 3.10551666 0 0 Z " fill="#EF7B13" transform="translate(106,96)"/>
<path d="M0 0 C0 0.99 0 1.98 0 3 C-2.64 3 -5.28 3 -8 3 C-6.23110084 -0.53779831 -3.70375662 0 0 0 Z " fill="#F8FAF5" transform="translate(110,124)"/>
<path d="M0 0 C0.66 0.66 1.32 1.32 2 2 C4.43252661 2.46162427 4.43252661 2.46162427 7.125 2.625 C8.03507812 2.69976562 8.94515625 2.77453125 9.8828125 2.8515625 C10.58148438 2.90054688 11.28015625 2.94953125 12 3 C12 3.33 12 3.66 12 4 C6.06 4.495 6.06 4.495 0 5 C0 3.35 0 1.7 0 0 Z " fill="#F9D6B1" transform="translate(100,115)"/>
<path d="M0 0 C0.33 0 0.66 0 1 0 C1.33 2.31 1.66 4.62 2 7 C-1.75 8.125 -1.75 8.125 -4 7 C-3.01 6.67 -2.02 6.34 -1 6 C-0.67 4.02 -0.34 2.04 0 0 Z " fill="#FCF1E6" transform="translate(150,111)"/>
<path d="M0 0 C0.66 0 1.32 0 2 0 C2.33 1.65 2.66 3.3 3 5 C2.34 5 1.68 5 1 5 C1 5.66 1 6.32 1 7 C0.34 7 -0.32 7 -1 7 C-0.67 4.69 -0.34 2.38 0 0 Z " fill="#F08C1B" transform="translate(77,108)"/>
<path d="M0 0 C1.98 0 3.96 0 6 0 C6 0.66 6 1.32 6 2 C3.24921116 2.91692961 1.64051087 3.10886083 -1.1875 3.0625 C-3.0746875 3.0315625 -3.0746875 3.0315625 -5 3 C-5 2.67 -5 2.34 -5 2 C-3.35 2 -1.7 2 0 2 C0 1.34 0 0.68 0 0 Z " fill="#F58C3B" transform="translate(123,96)"/>
<path d="M0 0 C6.15234375 0.5859375 6.15234375 0.5859375 8 1 C8.33 1.66 8.66 2.32 9 3 C6.21176345 4.0326802 5.1322726 4.04509293 2.25 3.0625 C1.5075 2.711875 0.765 2.36125 0 2 C0 1.34 0 0.68 0 0 Z " fill="#F37F10" transform="translate(92,96)"/>
</svg>
